<svg xmlns="http://www.w3.org/2000/svg" viewBox="-800 0 1600 620" role="img" aria-label="gothic window watermark" preserveAspectRatio="xMidYMin meet">
  <defs>
    <style>
      .gold{fill:none;stroke:#c8a45a;stroke-linecap:round;stroke-linejoin:round}
    </style>
  </defs>

  <!-- Center: original dominant gothic window geometry from WIP. -->
  <g>
    <path class="gold" d="M -240,620 L -240,300 C -240,128 -120,60 0,50 C 120,60 240,128 240,300 L 240,620" stroke-width="2.4"/>
    <line class="gold" x1="0" y1="620" x2="0" y2="218" stroke-width="1.6"/>
    <line class="gold" x1="-240" y1="400" x2="240" y2="400" stroke-width="1.3"/>
    <path class="gold" d="M -240,400 C -172,300 -62,245 0,218" stroke-width="1.3"/>
    <path class="gold" d="M 240,400 C 172,300 62,245 0,218" stroke-width="1.3"/>

    <circle class="gold" cx="0" cy="140" r="62" stroke-width="1.4"/>
    <circle class="gold" cx="0" cy="140" r="12" stroke-width="0.8"/>
    <circle class="gold" cx="0" cy="96" r="26" stroke-width="0.9"/>
    <circle class="gold" cx="-34" cy="162" r="26" stroke-width="0.9"/>
    <circle class="gold" cx="34" cy="162" r="26" stroke-width="0.9"/>

    <line class="gold" x1="-120" y1="620" x2="-120" y2="400" stroke-width="0.85"/>
    <line class="gold" x1="120" y1="620" x2="120" y2="400" stroke-width="0.85"/>
    <line class="gold" x1="-240" y1="510" x2="240" y2="510" stroke-width="0.7" opacity="0.7"/>
    <path class="gold" d="M -180,470 C -180,450 -160,440 -150,455 C -140,440 -120,450 -120,470" stroke-width="0.65"/>
    <path class="gold" d="M -60,470 C -60,450 -40,440 -30,455 C -20,440 0,450 0,470" stroke-width="0.65"/>
    <path class="gold" d="M 0,470 C 0,450 20,440 30,455 C 40,440 60,450 60,470" stroke-width="0.65"/>
    <path class="gold" d="M 120,470 C 120,450 140,440 150,455 C 160,440 180,450 180,470" stroke-width="0.65"/>
  </g>

  <!-- Left flanking lancet: original WIP placement and proportions. -->
  <g transform="translate(-560,150)">
    <path class="gold" d="M -110,460 L -110,265 C -110,145 -55,90 0,80 C 55,90 110,145 110,265 L 110,460" stroke-width="1.8"/>
    <line class="gold" x1="0" y1="460" x2="0" y2="198" stroke-width="1.2"/>
    <line class="gold" x1="-110" y1="325" x2="110" y2="325" stroke-width="1"/>
    <path class="gold" d="M -110,325 C -78,255 -32,222 0,198" stroke-width="1"/>
    <path class="gold" d="M 110,325 C 78,255 32,222 0,198" stroke-width="1"/>
    <circle class="gold" cx="0" cy="135" r="40" stroke-width="1"/>
    <circle class="gold" cx="0" cy="135" r="7.75" stroke-width="0.6"/>
    <circle class="gold" cx="0" cy="106.6" r="16.8" stroke-width="0.65"/>
    <circle class="gold" cx="-21.9" cy="149.2" r="16.8" stroke-width="0.65"/>
    <circle class="gold" cx="21.9" cy="149.2" r="16.8" stroke-width="0.65"/>
    <line class="gold" x1="0" y1="460" x2="0" y2="325" stroke-width="0.7" opacity="0.6"/>
  </g>

  <!-- Right flanking lancet: original WIP placement and proportions. -->
  <g transform="translate(560,150)">
    <path class="gold" d="M -110,460 L -110,265 C -110,145 -55,90 0,80 C 55,90 110,145 110,265 L 110,460" stroke-width="1.8"/>
    <line class="gold" x1="0" y1="460" x2="0" y2="198" stroke-width="1.2"/>
    <line class="gold" x1="-110" y1="325" x2="110" y2="325" stroke-width="1"/>
    <path class="gold" d="M -110,325 C -78,255 -32,222 0,198" stroke-width="1"/>
    <path class="gold" d="M 110,325 C 78,255 32,222 0,198" stroke-width="1"/>
    <circle class="gold" cx="0" cy="135" r="40" stroke-width="1"/>
    <circle class="gold" cx="0" cy="135" r="7.75" stroke-width="0.6"/>
    <circle class="gold" cx="0" cy="106.6" r="16.8" stroke-width="0.65"/>
    <circle class="gold" cx="-21.9" cy="149.2" r="16.8" stroke-width="0.65"/>
    <circle class="gold" cx="21.9" cy="149.2" r="16.8" stroke-width="0.65"/>
    <line class="gold" x1="0" y1="460" x2="0" y2="325" stroke-width="0.7" opacity="0.6"/>
  </g>

  <line class="gold" x1="-800" y1="620" x2="800" y2="620" stroke-width="0.7" opacity="0.55"/>
</svg>
