<svg xmlns="http://www.w3.org/2000/svg" viewBox="-800 0 1600 820" role="img" aria-label="gothic window watermark" preserveAspectRatio="xMidYMin meet">
  <defs>
    <style>
      .stone{fill:none;stroke:#c8a45a;stroke-linecap:round;stroke-linejoin:round;opacity:.18}
      .stone2{fill:none;stroke:#c8a45a;stroke-linecap:round;stroke-linejoin:round;opacity:.11}
      .gold{fill:none;stroke:#c8a45a;stroke-linecap:round;stroke-linejoin:round}
      .pane{fill:none;stroke:#c8a45a;stroke-width:.45;stroke-linecap:round;stroke-linejoin:round;opacity:.32}
      .rose{fill:none;stroke:#c8a45a;stroke-linecap:round;stroke-linejoin:round;opacity:.74}
    </style>
    <g id="rose-large">
      <circle class="rose" cx="0" cy="0" r="62" stroke-width="1.15"/>
      <circle class="rose" cx="0" cy="0" r="7" stroke-width=".55" opacity=".62"/>

      <!-- spiderweb spokes -->
      <line class="rose" x1="0" y1="0" x2="0" y2="-62" stroke-width=".52"/>
      <line class="rose" x1="0" y1="0" x2="43.8" y2="-43.8" stroke-width=".44"/>
      <line class="rose" x1="0" y1="0" x2="62" y2="0" stroke-width=".44"/>
      <line class="rose" x1="0" y1="0" x2="43.8" y2="43.8" stroke-width=".44"/>
      <line class="rose" x1="0" y1="0" x2="0" y2="62" stroke-width=".44"/>
      <line class="rose" x1="0" y1="0" x2="-43.8" y2="43.8" stroke-width=".44"/>
      <line class="rose" x1="0" y1="0" x2="-62" y2="0" stroke-width=".44"/>
      <line class="rose" x1="0" y1="0" x2="-43.8" y2="-43.8" stroke-width=".44"/>

      <!-- curved web strands: outer ring, broken into bowed segments -->
      <path class="rose" d="M0,-52 C16,-50 30,-46 37,-37" stroke-width=".48" opacity=".56"/>
      <path class="rose" d="M37,-37 C46,-30 50,-16 52,0" stroke-width=".48" opacity=".56"/>
      <path class="rose" d="M52,0 C50,16 46,30 37,37" stroke-width=".48" opacity=".56"/>
      <path class="rose" d="M37,37 C30,46 16,50 0,52" stroke-width=".48" opacity=".56"/>
      <path class="rose" d="M0,52 C-16,50 -30,46 -37,37" stroke-width=".48" opacity=".56"/>
      <path class="rose" d="M-37,37 C-46,30 -50,16 -52,0" stroke-width=".48" opacity=".56"/>
      <path class="rose" d="M-52,0 C-50,-16 -46,-30 -37,-37" stroke-width=".48" opacity=".56"/>
      <path class="rose" d="M-37,-37 C-30,-46 -16,-50 0,-52" stroke-width=".48" opacity=".56"/>

      <!-- curved web strands: middle ring, smaller and more bowed -->
      <path class="rose" d="M0,-36 C11,-35 20,-31 26,-26" stroke-width=".42" opacity=".48"/>
      <path class="rose" d="M26,-26 C31,-20 35,-11 36,0" stroke-width=".42" opacity=".48"/>
      <path class="rose" d="M36,0 C35,11 31,20 26,26" stroke-width=".42" opacity=".48"/>
      <path class="rose" d="M26,26 C20,31 11,35 0,36" stroke-width=".42" opacity=".48"/>
      <path class="rose" d="M0,36 C-11,35 -20,31 -26,26" stroke-width=".42" opacity=".48"/>
      <path class="rose" d="M-26,26 C-31,20 -35,11 -36,0" stroke-width=".42" opacity=".48"/>
      <path class="rose" d="M-36,0 C-35,-11 -31,-20 -26,-26" stroke-width=".42" opacity=".48"/>
      <path class="rose" d="M-26,-26 C-20,-31 -11,-35 0,-36" stroke-width=".42" opacity=".48"/>

      <!-- curved web strands: inner ring, irregular enough to avoid target look -->
      <path class="rose" d="M0,-21 C7,-21 13,-18 15,-15" stroke-width=".36" opacity=".44"/>
      <path class="rose" d="M15,-15 C19,-12 21,-6 21,0" stroke-width=".36" opacity=".44"/>
      <path class="rose" d="M21,0 C20,7 18,13 15,15" stroke-width=".36" opacity=".44"/>
      <path class="rose" d="M15,15 C11,19 6,21 0,21" stroke-width=".36" opacity=".44"/>
      <path class="rose" d="M0,21 C-7,20 -13,18 -15,15" stroke-width=".36" opacity=".44"/>
      <path class="rose" d="M-15,15 C-19,11 -21,6 -21,0" stroke-width=".36" opacity=".44"/>
      <path class="rose" d="M-21,0 C-20,-7 -18,-13 -15,-15" stroke-width=".36" opacity=".44"/>
      <path class="rose" d="M-15,-15 C-11,-19 -6,-21 0,-21" stroke-width=".36" opacity=".44"/>
    </g>
  </defs>

  <!-- Center stone setting -->
  <path class="stone" d="M -270,812 L -270,292 C -270,104 -134,32 0,22 C 134,32 270,104 270,292 L 270,812 L -270,812Z" stroke-width="8"/>
  <path class="stone2" d="M -254,804 L -254,296 C -254,116 -126,46 0,36 C 126,46 254,116 254,296 L 254,804 L -254,804Z" stroke-width="2.5"/>

  <!-- Center: original dominant gothic window geometry, lengthened. -->
  <g>
    <path class="gold" d="M -240,800 L -240,300 C -240,128 -120,60 0,50 C 120,60 240,128 240,300 L 240,800 L -240,800Z" stroke-width="2.4"/>
    <line class="gold" x1="0" y1="800" x2="0" y2="218" stroke-width="1.6"/>
    <line class="gold" x1="-240" y1="400" x2="240" y2="400" stroke-width="1.3"/>
    <path class="gold" d="M -240,400 C -172,300 -62,245 0,218" stroke-width="1.3"/>
    <path class="gold" d="M 240,400 C 172,300 62,245 0,218" stroke-width="1.3"/>

    <use href="#rose-large" x="0" y="140"/>

    <line class="gold" x1="-120" y1="800" x2="-120" y2="400" stroke-width="0.85"/>
    <line class="gold" x1="120" y1="800" x2="120" y2="400" stroke-width="0.85"/>
    <line class="gold" x1="-240" y1="510" x2="240" y2="510" stroke-width="0.7" opacity="0.7"/>
    <line class="gold" x1="-240" y1="620" x2="240" y2="620" stroke-width="0.6" opacity="0.55"/>
    <line class="gold" x1="-240" y1="710" x2="240" y2="710" stroke-width="0.55" opacity="0.5"/>

    <line class="pane" x1="-180" y1="400" x2="-180" y2="800"/>
    <line class="pane" x1="-60" y1="400" x2="-60" y2="800"/>
    <line class="pane" x1="60" y1="400" x2="60" y2="800"/>
    <line class="pane" x1="180" y1="400" x2="180" y2="800"/>
    <line class="pane" x1="-240" y1="455" x2="240" y2="455"/>
    <line class="pane" x1="-240" y1="565" x2="240" y2="565"/>
    <line class="pane" x1="-240" y1="665" x2="240" y2="665"/>
    <line class="pane" x1="-240" y1="755" x2="240" y2="755"/>
    <path class="pane" d="M -205,400 C -180,360 -150,335 -120,316"/>
    <path class="pane" d="M -35,400 C -25,350 -10,302 0,270"/>
    <path class="pane" d="M 35,400 C 25,350 10,302 0,270"/>
    <path class="pane" d="M 205,400 C 180,360 150,335 120,316"/>

    <path class="stone2" d="M -260,812 L 260,812" stroke-width="10" opacity=".16"/>
    <path class="gold" d="M -252,800 L 252,800" stroke-width="1" opacity=".55"/>
  </g>

  <!-- Left stone setting -->
  <g transform="translate(-560,150)">
    <path class="stone" d="M -132,652 L -132,260 C -132,126 -66,70 0,58 C 66,70 132,126 132,260 L 132,652 L -132,652Z" stroke-width="7"/>
    <path class="stone2" d="M -120,646 L -120,263 C -120,136 -60,80 0,70 C 60,80 120,136 120,263 L 120,646 L -120,646Z" stroke-width="2"/>
    <path class="gold" d="M -110,640 L -110,265 C -110,145 -55,90 0,80 C 55,90 110,145 110,265 L 110,640 L -110,640Z" stroke-width="1.8"/>
    <line class="gold" x1="0" y1="640" x2="0" y2="198" stroke-width="1.2"/>
    <line class="gold" x1="-110" y1="325" x2="110" y2="325" stroke-width="1"/>
    <path class="gold" d="M -110,325 C -78,255 -32,222 0,198" stroke-width="1"/>
    <path class="gold" d="M 110,325 C 78,255 32,222 0,198" stroke-width="1"/>
    <g transform="translate(0 135) scale(.645)"><use href="#rose-large"/></g>
    <line class="gold" x1="0" y1="640" x2="0" y2="325" stroke-width="0.7" opacity="0.6"/>
    <line class="gold" x1="-110" y1="460" x2="110" y2="460" stroke-width="0.65" opacity="0.55"/>
    <line class="gold" x1="-110" y1="550" x2="110" y2="550" stroke-width="0.55" opacity="0.5"/>
    <line class="pane" x1="-55" y1="325" x2="-55" y2="640"/>
    <line class="pane" x1="55" y1="325" x2="55" y2="640"/>
    <line class="pane" x1="-110" y1="392" x2="110" y2="392"/>
    <line class="pane" x1="-110" y1="505" x2="110" y2="505"/>
    <line class="pane" x1="-110" y1="595" x2="110" y2="595"/>
    <path class="pane" d="M -72,325 C -50,280 -26,235 0,208"/>
    <path class="pane" d="M 72,325 C 50,280 26,235 0,208"/>
    <path class="stone2" d="M -128,652 L 128,652" stroke-width="8" opacity=".14"/>
    <path class="gold" d="M -118,640 L 118,640" stroke-width=".85" opacity=".5"/>
  </g>

  <!-- Right stone setting -->
  <g transform="translate(560,150)">
    <path class="stone" d="M -132,652 L -132,260 C -132,126 -66,70 0,58 C 66,70 132,126 132,260 L 132,652 L -132,652Z" stroke-width="7"/>
    <path class="stone2" d="M -120,646 L -120,263 C -120,136 -60,80 0,70 C 60,80 120,136 120,263 L 120,646 L -120,646Z" stroke-width="2"/>
    <path class="gold" d="M -110,640 L -110,265 C -110,145 -55,90 0,80 C 55,90 110,145 110,265 L 110,640 L -110,640Z" stroke-width="1.8"/>
    <line class="gold" x1="0" y1="640" x2="0" y2="198" stroke-width="1.2"/>
    <line class="gold" x1="-110" y1="325" x2="110" y2="325" stroke-width="1"/>
    <path class="gold" d="M -110,325 C -78,255 -32,222 0,198" stroke-width="1"/>
    <path class="gold" d="M 110,325 C 78,255 32,222 0,198" stroke-width="1"/>
    <g transform="translate(0 135) scale(.645)"><use href="#rose-large"/></g>
    <line class="gold" x1="0" y1="640" x2="0" y2="325" stroke-width="0.7" opacity="0.6"/>
    <line class="gold" x1="-110" y1="460" x2="110" y2="460" stroke-width="0.65" opacity="0.55"/>
    <line class="gold" x1="-110" y1="550" x2="110" y2="550" stroke-width="0.55" opacity="0.5"/>
    <line class="pane" x1="-55" y1="325" x2="-55" y2="640"/>
    <line class="pane" x1="55" y1="325" x2="55" y2="640"/>
    <line class="pane" x1="-110" y1="392" x2="110" y2="392"/>
    <line class="pane" x1="-110" y1="505" x2="110" y2="505"/>
    <line class="pane" x1="-110" y1="595" x2="110" y2="595"/>
    <path class="pane" d="M -72,325 C -50,280 -26,235 0,208"/>
    <path class="pane" d="M 72,325 C 50,280 26,235 0,208"/>
    <path class="stone2" d="M -128,652 L 128,652" stroke-width="8" opacity=".14"/>
    <path class="gold" d="M -118,640 L 118,640" stroke-width=".85" opacity=".5"/>
  </g>
</svg>
